<?xml version="1.0" encoding="UTF-8"?>
<svg version="1.1" viewBox="0 0 892 808" width="223" height="202" xmlns="http://www.w3.org/2000/svg">
<path transform="translate(0)" d="m0 0h892v808h-892z" fill="#232F20"/>
<path transform="translate(430,130)" d="m0 0h50l24 3 19 4 24 7 26 11 17 9 13 8 16 11 13 11 8 7 20 20 8 10 12 16 11 18 11 20 4 10-13 1h-11l-4-4-10-18-10-15-12-16-9-10-7-8-7-7-11-9-16-12-19-12-16-8-16-7-24-8-21-5-22-3h-43l-27 4-17 4-27 9-25 12-17 10-18 13-13 11-14 13-9 11-8 10-2 3v3l29 17 19 12 15 9 21 13 9 6 19 12 15 9 28 17 15 9 7 5 5-1 18-11 24-15 23-14 15-10 13-8 40-25 23-14 10-6h2l1 81v90l-1 98-1 1-11 1h-11l-1-10 1-219-6 3-19 12-16 10-19 12-15 9-40 25-20 13-9 6-1 1h-5l-9-6-20-12-11-7-21-13-28-17-26-16-17-11-18-11-21-13-15-9-6-3-8 14-8 20-8 24-6 27-1 13-1 4v39l1 3 2 18 7 30 7 21 8 18 10 18 12 18 3 4v2h2l1-216 4 1 24 15 20 12 11 7 13 8 16 10 28 17 21 13 16 10 12 8 7 4 4-1 17-11 32-20 26-16 14-9 18-11h3v26l-10 7-20 12-18 12-7 4-19 12-21 13-14 9-1 1-7-1-31-19-24-15-19-12-26-16-23-14-19-12-3-2 1 24v177l1 3h2v2h2l5 5 9 8 17 12 24 13 19 8 21 7 32 7 18 2h33l24-3 27-6 24-8 18-8 19-10 12-8 12-9 15-13 20-20 13-17 11-17 12-22 3-5h25l-1 4-12 25-8 14-8 12-8 11-9 11-14 15-11 11-11 9-16 12-20 12-17 9-27 11-15 5-34 7-22 2h-35l-23-2-36-8-26-9-29-14-17-10-18-13-11-9-12-11-10-10-9-11-8-10-7-10-10-16-13-25-8-20-8-26-5-25-1-8-1-21v-20l1-24 5-29 9-31 9-21 11-21 12-19 11-14 11-13 23-23 11-9 18-13 20-12 25-12 22-8 27-7 18-3z" fill="#94D058"/>
</svg>
